# xmcd CD database file
#
# Track frame offsets:
#	150
#	21527
#	57817
#	77075
#	98342
#	119422
#	136592
#	153545
#	168992
#	194215
#
# Disc length: 2817 seconds
#
# Revision: 0
# Processed by: cddbd v1.5.1PL0 Copyright (c) Steve Scherf et al.
# Submitted via: CDex 1.51
#
DISCID=7f0aff0a
DTITLE=Various Artist - AVEX DANCE X'MAS
DYEAR=1995
DGENRE=Dance
TTITLE0=WRAP YOU UP
TTITLE1=LAST CHRISTMAS
TTITLE2=WHITE CHRISTMAS
TTITLE3=MY FIRST CHRISTMAS
TTITLE4=I DON'T WANT TO BE ALONE
TTITLE5=LEAN ON ME
TTITLE6=THE LITTLE DRUMMER BOY
TTITLE7=SANTA CLAUS IS COMIN TO TOWN
TTITLE8=CHRISTMAS TIME
TTITLE9=MERRY X-MESS
EXTD=YEAR: 1995
EXTT0=
EXTT1=
EXTT2=
EXTT3=
EXTT4=
EXTT5=
EXTT6=
EXTT7=
EXTT8=
EXTT9=
PLAYORDER=
